<svg width="33" height="32" viewBox="0 0 33 32" fill="none" xmlns="http://www.w3.org/2000/svg">
<path d="M16.2501 28.0007C24.2501 28.0007 25.5834 21.0222 25.5834 18.6673C25.5834 16.5592 25.5834 13.4481 25.5834 9.33398H6.91675C6.91675 11.6288 6.91675 14.74 6.91675 18.6673C6.91675 20.9677 8.25008 28.0007 16.2501 28.0007Z" stroke="#171717" stroke-width="2" stroke-linejoin="round"/>
<path d="M2.91675 5.33398L6.91675 9.33398" stroke="#171717" stroke-width="2" stroke-linecap="round" stroke-linejoin="round"/>
<path d="M29.5835 5.33398L25.5835 9.33398" stroke="#171717" stroke-width="2" stroke-linecap="round" stroke-linejoin="round"/>
<path d="M2.91675 18H6.91675" stroke="#171717" stroke-width="2" stroke-linecap="round" stroke-linejoin="round"/>
<path d="M29.5835 18H25.5835" stroke="#171717" stroke-width="2" stroke-linecap="round" stroke-linejoin="round"/>
<path d="M4.91675 29.334L8.91675 25.334" stroke="#171717" stroke-width="2" stroke-linecap="round" stroke-linejoin="round"/>
<path d="M27.5835 29.334L23.5835 25.334" stroke="#171717" stroke-width="2" stroke-linecap="round" stroke-linejoin="round"/>
<path d="M16.25 28.0007V9.33398" stroke="#171717" stroke-width="2" stroke-linecap="round" stroke-linejoin="round"/>
<path d="M10.197 26.0278C11.585 27.1893 13.533 28.0005 16.25 28.0005C18.9909 28.0005 20.9492 27.1814 22.3395 26.0098" stroke="#171717" stroke-width="2" stroke-linecap="round" stroke-linejoin="round"/>
<path d="M21.5834 8.22255C21.5834 5.1543 19.1956 2.66699 16.2501 2.66699C13.3046 2.66699 10.9167 5.1543 10.9167 8.22255V9.33366H21.5834V8.22255Z" stroke="#171717" stroke-width="2" stroke-linejoin="round"/>
</svg>
