<svg width="33" height="32" viewBox="0 0 33 32" fill="none" xmlns="http://www.w3.org/2000/svg">
<path d="M19.25 13.5H23.25" stroke="#171717" stroke-width="1.5" stroke-linecap="round" stroke-linejoin="round"/>
<path d="M9.25 13.5H13.25" stroke="#171717" stroke-width="1.5" stroke-linecap="round" stroke-linejoin="round"/>
<path d="M11.25 11.5V15.5" stroke="#171717" stroke-width="1.5" stroke-linecap="round" stroke-linejoin="round"/>
<path d="M21.7524 6.96777L10.7507 7.0003C9.22245 7.00041 7.7431 7.53883 6.57232 8.52103C5.40153 9.50324 4.61414 10.8665 4.34835 12.3714L4.34942 12.3716L2.30387 22.8919C2.17467 23.625 2.28251 24.3801 2.61175 25.0477C2.94099 25.7153 3.47446 26.2605 4.1347 26.6042C4.79494 26.948 5.54756 27.0722 6.28325 26.959C7.01894 26.8459 7.69939 26.5011 8.22578 25.9748L8.22557 25.9746L13.63 20.0003L21.7524 19.9678C23.4763 19.9678 25.1296 19.283 26.3486 18.064C27.5676 16.845 28.2524 15.1917 28.2524 13.4678C28.2524 11.7439 27.5676 10.0906 26.3486 8.87158C25.1296 7.65259 23.4763 6.96777 21.7524 6.96777V6.96777Z" stroke="#171717" stroke-width="1.5" stroke-linecap="round" stroke-linejoin="round"/>
<path d="M28.1535 12.3389L30.1974 22.8918C30.3266 23.6248 30.2188 24.38 29.8895 25.0475C29.5603 25.7151 29.0268 26.2603 28.3666 26.6041C27.7063 26.9478 26.9537 27.0721 26.218 26.9589C25.4823 26.8457 24.8019 26.5009 24.2755 25.9746L24.2757 25.9744L18.875 19.9791" stroke="#171717" stroke-width="1.5" stroke-linecap="round" stroke-linejoin="round"/>
</svg>
