<svg width="33" height="32" viewBox="0 0 33 32" fill="none" xmlns="http://www.w3.org/2000/svg">
<path d="M24.7499 9.547C24.6699 9.53366 24.5766 9.53366 24.4966 9.547C22.6566 9.48033 21.1899 7.97366 21.1899 6.10699C21.1899 4.20033 22.7233 2.66699 24.6299 2.66699C26.5366 2.66699 28.0699 4.21366 28.0699 6.10699C28.0566 7.97366 26.5899 9.48033 24.7499 9.547Z" stroke="#171717" stroke-width="1.5" stroke-linecap="round" stroke-linejoin="round"/>
<path d="M23.3767 19.2539C25.2033 19.5605 27.2167 19.2405 28.63 18.2939C30.51 17.0405 30.51 14.9872 28.63 13.7339C27.2033 12.7872 25.1633 12.4672 23.3367 12.7872" stroke="#171717" stroke-width="1.5" stroke-linecap="round" stroke-linejoin="round"/>
<path d="M8.70989 9.547C8.78989 9.53366 8.88323 9.53366 8.96323 9.547C10.8032 9.48033 12.2699 7.97366 12.2699 6.10699C12.2699 4.20033 10.7366 2.66699 8.8299 2.66699C6.92323 2.66699 5.38989 4.21366 5.38989 6.10699C5.40323 7.97366 6.86989 9.48033 8.70989 9.547Z" stroke="#171717" stroke-width="1.5" stroke-linecap="round" stroke-linejoin="round"/>
<path d="M10.0833 19.2539C8.25659 19.5605 6.24326 19.2405 4.82992 18.2939C2.94992 17.0405 2.94992 14.9872 4.82992 13.7339C6.25659 12.7872 8.29659 12.4672 10.1233 12.7872" stroke="#171717" stroke-width="1.5" stroke-linecap="round" stroke-linejoin="round"/>
<path d="M16.7499 19.507C16.6699 19.4936 16.5766 19.4936 16.4966 19.507C14.6566 19.4403 13.1899 17.9336 13.1899 16.067C13.1899 14.1603 14.7233 12.627 16.6299 12.627C18.5366 12.627 20.0699 14.1736 20.0699 16.067C20.0566 17.9336 18.5899 19.4536 16.7499 19.507Z" stroke="#171717" stroke-width="1.5" stroke-linecap="round" stroke-linejoin="round"/>
<path d="M12.87 23.7065C10.99 24.9598 10.99 27.0131 12.87 28.2665C15.0033 29.6931 18.4966 29.6931 20.63 28.2665C22.51 27.0131 22.51 24.9598 20.63 23.7065C18.51 22.2932 15.0033 22.2932 12.87 23.7065Z" stroke="#171717" stroke-width="1.5" stroke-linecap="round" stroke-linejoin="round"/>
</svg>
