<svg width="33" height="32" viewBox="0 0 33 32" fill="none" xmlns="http://www.w3.org/2000/svg">
<path d="M10.125 10.25C10.125 10.7473 10.3225 11.2242 10.6742 11.5758C11.0258 11.9275 11.5027 12.125 12 12.125C12.4973 12.125 12.9742 11.9275 13.3258 11.5758C13.6775 11.2242 13.875 10.7473 13.875 10.25C13.875 9.75272 13.6775 9.2758 13.3258 8.92417C12.9742 8.57254 12.4973 8.375 12 8.375C11.5027 8.375 11.0258 8.57254 10.6742 8.92417C10.3225 9.2758 10.125 9.75272 10.125 10.25ZM27.375 2H6.125C5.57187 2 5.125 2.44687 5.125 3V23.625C5.125 24.1781 5.57187 24.625 6.125 24.625H27.375C27.9281 24.625 28.375 24.1781 28.375 23.625V3C28.375 2.44687 27.9281 2 27.375 2ZM26.375 22.625H7.125V4H26.375V22.625ZM19.625 10.25C19.625 10.7473 19.8225 11.2242 20.1742 11.5758C20.5258 11.9275 21.0027 12.125 21.5 12.125C21.9973 12.125 22.4742 11.9275 22.8258 11.5758C23.1775 11.2242 23.375 10.7473 23.375 10.25C23.375 9.75272 23.1775 9.2758 22.8258 8.92417C22.4742 8.57254 21.9973 8.375 21.5 8.375C21.0027 8.375 20.5258 8.57254 20.1742 8.92417C19.8225 9.2758 19.625 9.75272 19.625 10.25ZM27.4438 27.625H6.05625C5.54063 27.625 5.125 28.0719 5.125 28.625V29.75C5.125 29.8875 5.22812 30 5.35625 30H28.1406C28.2687 30 28.3719 29.8875 28.3719 29.75V28.625C28.375 28.0719 27.9594 27.625 27.4438 27.625ZM21.5 15.875H12C11.8625 15.875 11.75 15.9875 11.75 16.125V18C11.75 18.1375 11.8625 18.25 12 18.25H21.5C21.6375 18.25 21.75 18.1375 21.75 18V16.125C21.75 15.9875 21.6375 15.875 21.5 15.875Z" fill="#171717"/>
</svg>
