<svg width="33" height="32" viewBox="0 0 33 32" fill="none" xmlns="http://www.w3.org/2000/svg">
<path d="M4.76343 14.96V20.9466C4.76343 26.9333 7.16343 29.3333 13.1501 29.3333H20.3368C26.3234 29.3333 28.7234 26.9333 28.7234 20.9466V14.96" stroke="#171717" stroke-width="1.5" stroke-linecap="round" stroke-linejoin="round"/>
<path d="M16.75 16.0003C19.19 16.0003 20.99 14.0137 20.75 11.5737L19.87 2.66699H13.6433L12.75 11.5737C12.51 14.0137 14.31 16.0003 16.75 16.0003Z" stroke="#171717" stroke-width="1.5" stroke-linecap="round" stroke-linejoin="round"/>
<path d="M25.1633 16.0003C27.8566 16.0003 29.83 13.8137 29.5633 11.1337L29.19 7.46699C28.71 4.00033 27.3767 2.66699 23.8833 2.66699H19.8167L20.75 12.0137C20.9767 14.2137 22.9633 16.0003 25.1633 16.0003Z" stroke="#171717" stroke-width="1.5" stroke-linecap="round" stroke-linejoin="round"/>
<path d="M8.27009 16.0003C10.4701 16.0003 12.4568 14.2137 12.6701 12.0137L12.9634 9.06699L13.6034 2.66699H9.53675C6.04342 2.66699 4.71009 4.00033 4.23009 7.46699L3.87009 11.1337C3.60342 13.8137 5.57675 16.0003 8.27009 16.0003Z" stroke="#171717" stroke-width="1.5" stroke-linecap="round" stroke-linejoin="round"/>
<path d="M16.7501 22.667C14.5234 22.667 13.4167 23.7737 13.4167 26.0003V29.3337H20.0834V26.0003C20.0834 23.7737 18.9767 22.667 16.7501 22.667Z" stroke="#171717" stroke-width="1.5" stroke-linecap="round" stroke-linejoin="round"/>
</svg>
